<?xml version="1.0" encoding="UTF-8"?>
<svg id="Capa_1" xmlns="http://www.w3.org/2000/svg" version="1.1" xmlns:cc="http://creativecommons.org/ns#" xmlns:dc="http://purl.org/dc/elements/1.1/" xmlns:inkscape="http://www.inkscape.org/namespaces/inkscape" xmlns:rdf="http://www.w3.org/1999/02/22-rdf-syntax-ns#" xmlns:sodipodi="http://sodipodi.sourceforge.net/DTD/sodipodi-0.dtd" xmlns:svg="http://www.w3.org/2000/svg" viewBox="0 0 100 100">
  <!-- Generator: Adobe Illustrator 29.1.0, SVG Export Plug-In . SVG Version: 2.1.0 Build 142)  -->
  <defs>
    <style>
      .st0 {
        fill: #140d02;
        fill-rule: evenodd;
      }
    </style>
  </defs>
  <path class="st0" d="M49.9,0C22.4,0,0,22.4,0,49.9s22.4,49.9,49.9,49.9,49.9-22.4,49.9-49.9S77.4,0,49.9,0ZM49.9,4.5c25.1,0,45.4,20.3,45.4,45.4s-20.3,45.4-45.4,45.4S4.5,75,4.5,49.9,24.8,4.5,49.9,4.5Z"/>
  <path class="st0" d="M32.6,30.6c-1.2.1-2.2,1.2-2,2.5,0,.5.3,1,.7,1.4l15.4,15.4-15.4,15.4c-.9.9-.9,2.3,0,3.2.9.9,2.3.9,3.2,0h0l15.4-15.4,15.4,15.4c.9.9,2.3.9,3.2,0,.9-.9.9-2.3,0-3.2h0l-15.4-15.4,15.4-15.4c.9-.9.9-2.3,0-3.2-.4-.5-1.1-.7-1.7-.7-.6,0-1.1.3-1.6.7l-15.4,15.4-15.4-15.4c-.4-.4-1-.7-1.6-.7,0,0-.2,0-.2,0Z"/>
</svg>