<?xml version="1.0" encoding="UTF-8"?>
<svg xmlns="http://www.w3.org/2000/svg" version="1.1" viewBox="0 0 100 100">
  <!-- Generator: Adobe Illustrator 28.7.3, SVG Export Plug-In . SVG Version: 1.2.0 Build 164)  -->
  <g>
    <g id="Capa_1">
      <g>
        <path d="M26,62h48c2.2,0,4-1.8,4-4s-1.8-4-4-4H26c-2.2,0-4,1.8-4,4s1.8,4,4,4Z"/>
        <path d="M26,78h24c2.2,0,4-1.8,4-4s-1.8-4-4-4h-24c-2.2,0-4,1.8-4,4s1.8,4,4,4Z"/>
        <path d="M26,30h48c2.2,0,4-1.8,4-4s-1.8-4-4-4H26c-2.2,0-4,1.8-4,4s1.8,4,4,4Z"/>
        <path d="M26,46h24c2.2,0,4-1.8,4-4s-1.8-4-4-4h-24c-2.2,0-4,1.8-4,4s1.8,4,4,4Z"/>
      </g>
    </g>
  </g>
</svg>