<?xml version="1.0" encoding="UTF-8"?>
<svg id="Capa_2" data-name="Capa 2" xmlns="http://www.w3.org/2000/svg" viewBox="0 0 147.01 147.01">
  <defs>
    <style>
      .cls-1 {
        fill: #fe6c3b;
      }
    </style>
  </defs>
  <g id="Capa_1-2" data-name="Capa 1">
    <polygon class="cls-1" points="73.51 0 77.9 45.78 96.22 3.6 86.25 48.49 116.71 14.04 93.36 53.65 132.98 30.3 98.52 60.76 143.42 50.79 101.24 69.11 147.01 73.51 101.24 77.9 143.42 96.22 98.52 86.25 132.98 116.71 93.36 93.36 116.71 132.98 86.25 98.52 96.22 143.42 77.9 101.24 73.51 147.01 69.11 101.24 50.79 143.42 60.76 98.52 30.3 132.98 53.65 93.36 14.04 116.71 48.49 86.25 3.6 96.22 45.78 77.9 0 73.51 45.78 69.11 3.6 50.79 48.49 60.76 14.04 30.3 53.65 53.65 30.3 14.04 60.76 48.49 50.79 3.6 69.11 45.78 73.51 0"/>
  </g>
</svg>